<?xml version="1.0" standalone="no"?>
<!DOCTYPE svg PUBLIC "-//W3C//DTD SVG 20010904//EN"
 "http://www.w3.org/TR/2001/REC-SVG-20010904/DTD/svg10.dtd">
<svg version="1.0" xmlns="http://www.w3.org/2000/svg"
 width="500.000000pt" height="500.000000pt" viewBox="0 0 500.000000 500.000000"
 preserveAspectRatio="xMidYMid meet">

<g transform="translate(0.000000,500.000000) scale(0.100000,-0.100000)"
fill="#000000" stroke="none">
<path d="M762 2491 l3 -829 31 -39 c17 -21 46 -47 65 -58 34 -20 54 -20 1662
-23 l1627 -2 0 808 0 808 -25 50 c-27 54 -60 84 -114 102 -25 9 -439 12 -1643
12 l-1608 0 2 -829z m638 724 c116 -30 207 -82 292 -166 90 -88 131 -163 155
-289 15 -73 15 -87 0 -162 -23 -118 -67 -199 -151 -283 -116 -116 -260 -177
-451 -191 -134 -9 -195 6 -255 64 -31 30 -52 61 -59 87 -7 25 -11 164 -11 378
l0 337 23 0 c40 0 123 -49 151 -88 37 -55 46 -120 46 -355 l0 -209 98 4 c83 3
106 8 162 35 139 66 201 153 208 291 4 77 2 87 -27 146 -38 77 -92 128 -179
169 -59 27 -79 31 -192 37 -147 7 -204 28 -246 89 -28 41 -48 106 -38 122 11
18 394 5 474 -16z m1680 -467 c0 -292 -4 -477 -11 -501 -20 -73 -117 -152
-177 -145 l-27 3 0 470 c0 462 0 471 22 510 28 53 72 93 119 110 81 29 74 71
74 -447z m930 442 c0 -50 -54 -134 -105 -163 -11 -7 -91 -14 -185 -17 -180 -6
-210 -15 -253 -72 -27 -36 -27 -99 -1 -135 36 -50 97 -73 194 -73 143 0 257
-44 330 -127 56 -64 74 -108 78 -195 4 -66 0 -85 -21 -132 -46 -100 -152 -179
-275 -205 -30 -6 -153 -11 -287 -11 l-235 0 0 24 c0 61 47 126 115 157 33 15
66 19 195 19 129 0 162 4 195 19 54 25 76 51 82 102 12 89 -56 149 -168 149
-208 0 -354 73 -425 212 -37 71 -39 169 -5 245 29 66 112 145 188 181 57 26
63 27 303 33 135 3 253 6 263 7 11 1 17 -5 17 -18z m-1840 -472 c0 -439 -2
-476 -19 -513 -31 -67 -111 -125 -171 -125 -20 0 -20 4 -20 470 0 513 0 512
58 574 30 32 96 65 130 66 l22 0 0 -472z m458 -1 l-3 -473 -26 -49 c-30 -60
-89 -104 -148 -112 l-42 -6 3 479 c3 474 3 479 25 521 34 64 104 111 166 112
l28 1 -3 -473z m1420 -754 c3 -10 -319 -13 -1587 -13 -877 0 -1592 4 -1595 9
-3 4 -3 11 1 15 4 3 720 5 1591 4 1258 -2 1586 -6 1590 -15z m-3035 -84 c39
-20 57 -51 57 -101 0 -90 -28 -118 -127 -126 l-63 -5 0 122 0 121 56 0 c30 0
65 -5 77 -11z m147 -110 c0 -119 0 -120 -22 -117 -22 3 -23 7 -26 121 l-3 117
26 0 25 0 0 -121z m214 96 c14 -13 26 -31 26 -40 0 -21 -32 -19 -53 5 -33 39
-92 19 -103 -34 -11 -61 16 -106 65 -106 29 0 51 16 51 37 0 7 -11 13 -25 13
-18 0 -25 5 -25 20 0 17 7 20 50 20 46 0 50 -2 50 -25 0 -105 -148 -146 -196
-54 -17 33 -18 102 -3 132 31 61 114 77 163 32z m116 -95 c0 -113 -1 -120 -20
-120 -19 0 -20 7 -20 120 0 113 1 120 20 120 19 0 20 -7 20 -120z m220 100 c0
-16 -7 -20 -35 -20 l-35 0 0 -100 c0 -93 -1 -100 -20 -100 -19 0 -20 7 -20
100 l0 100 -35 0 c-28 0 -35 4 -35 20 0 19 7 20 90 20 83 0 90 -1 90 -20z
m172 -89 c43 -119 45 -131 19 -131 -12 0 -23 11 -30 30 -9 27 -14 30 -55 30
-40 0 -45 -3 -55 -30 -7 -20 -17 -30 -30 -30 -26 0 -26 3 4 86 14 38 33 88 41
112 14 37 20 43 42 40 22 -3 30 -15 64 -107z m118 9 l0 -100 50 0 c43 0 50 -3
50 -20 0 -18 -7 -20 -70 -20 l-70 0 0 120 c0 113 1 120 20 120 19 0 20 -7 20
-100z m309 13 l34 -87 23 51 c12 28 28 67 35 87 11 30 18 36 41 36 l29 0 -3
-117 c-3 -103 -5 -118 -20 -121 -16 -3 -18 6 -18 74 0 43 -4 74 -8 69 -5 -6
-21 -41 -37 -78 -18 -46 -32 -67 -42 -65 -9 2 -27 33 -42 70 -14 36 -30 70
-34 74 -4 4 -7 -27 -7 -69 0 -70 -2 -77 -20 -77 -19 0 -20 7 -20 120 l0 120
28 0 c25 0 30 -7 61 -87z m251 -1 c0 -95 7 -112 50 -112 43 0 50 17 50 113 0
86 1 88 23 85 21 -3 22 -7 22 -96 0 -90 -1 -95 -28 -118 -38 -32 -96 -33 -133
0 -26 22 -28 29 -32 120 l-4 96 26 0 26 0 0 -88z m240 -12 l0 -100 50 0 c43 0
50 -3 50 -20 0 -18 -7 -20 -75 -20 l-75 0 0 120 0 120 25 0 25 0 0 -100z m280
80 c0 -16 -7 -20 -35 -20 l-35 0 0 -100 c0 -93 -1 -100 -20 -100 -19 0 -20 7
-20 100 l0 100 -35 0 c-28 0 -35 4 -35 20 0 19 7 20 90 20 83 0 90 -1 90 -20z
m80 -100 c0 -113 -1 -120 -20 -120 -19 0 -20 7 -20 120 0 113 1 120 20 120 19
0 20 -7 20 -120z m344 99 c14 -11 26 -27 26 -35 0 -19 -34 -18 -50 2 -19 22
-75 15 -75 -10 0 -14 13 -24 46 -35 60 -21 79 -37 79 -70 0 -46 -33 -71 -95
-71 -35 0 -85 35 -85 60 0 16 47 12 54 -5 3 -9 18 -15 34 -15 64 0 64 51 0 64
-52 10 -78 33 -78 66 0 65 86 94 144 49z m106 -99 c0 -113 -1 -120 -20 -120
-19 0 -20 7 -20 120 0 113 1 120 20 120 19 0 20 -7 20 -120z m228 103 c-2 -13
-14 -19 -41 -21 l-37 -3 0 -100 c0 -92 -1 -99 -20 -99 -19 0 -20 7 -20 100 l0
100 -35 0 c-28 0 -35 4 -35 20 0 19 7 20 96 20 86 0 95 -2 92 -17z m192 -3 c0
-18 -7 -20 -55 -20 -54 0 -55 0 -55 -30 0 -29 1 -30 50 -30 43 0 50 -3 50 -20
0 -17 -7 -20 -50 -20 -49 0 -50 -1 -50 -30 0 -30 1 -30 55 -30 49 0 55 -2 55
-20 0 -19 -5 -21 -77 -18 l-78 3 -3 118 -3 117 81 0 c73 0 80 -2 80 -20z
m-720 -100 c0 -17 -7 -20 -50 -20 -43 0 -50 3 -50 20 0 17 7 20 50 20 43 0 50
-3 50 -20z"/>
<path d="M922 1773 l3 -78 32 -3 c45 -4 73 26 73 78 0 51 -27 80 -75 80 l-36
0 3 -77z"/>
<path d="M1807 1815 c-19 -68 -20 -65 7 -65 29 0 31 11 12 55 -11 27 -13 28
-19 10z"/>
</g>
</svg>
